<svg xmlns="http://www.w3.org/2000/svg" viewBox="0 0 24 24" width="30" height="30">
  <path d="M12 0C5.37 0 0 5.37 0 12c0 5.3 3.438 9.8 8.207 11.385.6.113.793-.26.793-.577v-2.3c-3.34.726-4.042-1.61-4.042-1.61-.546-1.386-1.333-1.756-1.333-1.756-1.09-.744.084-.73.084-.73 1.205.085 1.84 1.24 1.84 1.24 1.07 1.833 2.805 1.304 3.487.998.11-.775.42-1.303.763-1.603-2.665-.304-5.466-1.332-5.466-5.93 0-1.31.467-2.38 1.24-3.22-.125-.304-.537-1.526.116-3.176 0 0 1.01-.323 3.3 1.23.96-.266 1.98-.4 3-.4s2.04.134 3 .4c2.29-1.553 3.3-1.23 3.3-1.23.653 1.65.24 2.872.117 3.176.772.84 1.24 1.91 1.24 3.22 0 4.61-2.805 5.624-5.475 5.92.43.37.815 1.096.815 2.21v3.29c0 .32.192.694.8.577C20.563 21.8 24 17.3 24 12c0-6.63-5.37-12-12-12z"/>
</svg>
